<svg xmlns="http://www.w3.org/2000/svg" xmlns:xlink="http://www.w3.org/1999/xlink" version="1.1" x="0px" y="0px" viewBox="0 0 68 85" style="enable-background:new 0 0 68 68;" xml:space="preserve"><style type="text/css">
	.st0{fill:white;}
	.st1{fill:none;stroke:#010101;stroke-width:2;stroke-linecap:round;stroke-linejoin:round;stroke-miterlimit:10;}
</style><g><g><path class="st0" d="M10.3,46.8c-0.6,0-1,0.4-1,1v14.2c0,0.6,0.4,1,1,1h5.6c0.6,0,1-0.4,1-1V47.8c0-0.6-0.4-1-1-1H10.3z     M14.9,61.1h-3.6V48.8h3.6V61.1z"/></g><g><path class="st0" d="M21.5,39.4c-0.6,0-1,0.4-1,1v21.6c0,0.6,0.4,1,1,1h5.6c0.6,0,1-0.4,1-1V40.4c0-0.6-0.4-1-1-1H21.5z     M26.1,61.1h-3.6V41.4h3.6V61.1z"/></g><g><path class="st0" d="M32.7,34.4c-0.6,0-1,0.4-1,1v26.6c0,0.6,0.4,1,1,1h5.6c0.6,0,1-0.4,1-1V35.4c0-0.6-0.4-1-1-1H32.7z     M37.3,61.1h-3.6V36.4h3.6V61.1z"/></g><g><path class="st0" d="M43.9,63.1h5.6c0.6,0,1-0.4,1-1V27.7c0-0.6-0.4-1-1-1h-5.6c-0.6,0-1,0.4-1,1v34.4    C42.9,62.6,43.4,63.1,43.9,63.1z M44.9,28.7h3.6v32.4h-3.6V28.7z"/></g><g><path class="st0" d="M55.4,63.1H61c0.6,0,1-0.4,1-1V16.7c0-0.6-0.4-1-1-1h-5.6c-0.6,0-1,0.4-1,1v45.3    C54.4,62.6,54.8,63.1,55.4,63.1z M56.4,17.7H60v43.3h-3.6V17.7z"/></g><g><path class="st0" d="M66,65H3V2c0-0.6-0.4-1-1-1S1,1.4,1,2v64c0,0.6,0.4,1,1,1h64c0.6,0,1-0.4,1-1C67,65.4,66.6,65,66,65z"/></g><g><path class="st0" d="M32.9,27.8c-2.7,2.5-6.2,3.7-9.9,3.5c-2.2-0.1-4.3-0.7-6.2-1.8c-0.5-0.3-1.1-0.1-1.4,0.4    c-0.3,0.5-0.1,1.1,0.4,1.4c2.2,1.3,4.5,1.9,7.1,2.1c4.2,0.2,8.2-1.2,11.3-4c3.1-2.8,5-6.7,5.2-10.8c0.2-3.3-0.7-6.4-2.4-9.1    l1.6,0.4c0.5,0.1,1.1-0.2,1.2-0.7c0.1-0.5-0.2-1.1-0.7-1.2l-4.3-1c-0.6-0.1-1.1,0.3-1.2,0.8l-0.6,4c-0.1,0.5,0.3,1.1,0.8,1.1    c0.6,0.1,1.1-0.3,1.1-0.8l0.3-1.7c1.6,2.4,2.4,5.2,2.2,8.1C37.2,21.9,35.6,25.3,32.9,27.8z"/></g><g><path class="st0" d="M8.2,27.4l4.3,1c0.3,0.1,0.6,0,0.9-0.2c0.2-0.2,0.3-0.4,0.4-0.6l0.6-4.2c0.1-0.5-0.3-1.1-0.8-1.1    c-0.5-0.1-1.1,0.3-1.1,0.8l-0.3,1.8c-1.5-2.4-2.3-5.2-2.1-8c0.2-3.7,1.8-7,4.5-9.5c4.6-4.2,11.2-4.5,16.2-1.6    c0.5,0.3,1.1,0.1,1.4-0.4c0.3-0.5,0.1-1.1-0.4-1.4C26,0.7,18.4,1.2,13.1,6C10,8.8,8.2,12.6,8,16.8c-0.2,3.2,0.7,6.3,2.3,9    l-1.6-0.4c-0.5-0.1-1.1,0.2-1.2,0.7C7.4,26.7,7.7,27.2,8.2,27.4z"/></g><g><path class="st0" d="M18.2,21.6l-2,2.4c2,1.8,4.3,2.8,6.9,3v2h1.8v-2c1.9-0.1,3.4-0.7,4.6-1.7c1.2-1,1.7-2.3,1.7-4    s-0.5-2.9-1.5-3.7c-1-0.9-2.6-1.5-4.7-2h-0.1v-5.2c1.4,0.2,2.8,0.7,4,1.6l1.8-2.6c-1.8-1.2-3.8-1.9-5.8-2.1V6.1h-1.8v1.4    c-1.8,0.1-3.3,0.7-4.4,1.7c-1.1,1-1.7,2.3-1.7,3.9c0,1.6,0.5,2.8,1.5,3.6c1,0.8,2.5,1.5,4.6,2v5.4C21.4,23.8,19.8,23,18.2,21.6z     M24.9,19.1c1.1,0.3,1.9,0.7,2.3,1.1c0.4,0.4,0.6,0.9,0.6,1.5c0,0.7-0.3,1.2-0.8,1.6c-0.5,0.4-1.2,0.7-2.1,0.8V19.1z M21,14.2    c-0.4-0.4-0.6-0.9-0.6-1.5c0-0.6,0.2-1.1,0.7-1.6c0.5-0.4,1.1-0.7,2-0.7v4.8C22,14.9,21.3,14.6,21,14.2z"/></g></g><text x="0" y="83" fill="#000000" font-size="5px" font-weight="bold" font-family="'Helvetica Neue', Helvetica, Arial-Unicode, Arial, Sans-serif">Created by Vectors Market</text><text x="0" y="88" fill="#000000" font-size="5px" font-weight="bold" font-family="'Helvetica Neue', Helvetica, Arial-Unicode, Arial, Sans-serif">from the Noun Project</text></svg>